<svg width="436" height="448" viewBox="0 0 436 448" fill="none" xmlns="http://www.w3.org/2000/svg">
<g filter="url(#filter0_d_109_78)">
<rect x="4" y="2" width="428" height="440" rx="6" fill="white" shape-rendering="crispEdges"/>
<path d="M83.2188 73.4531H87.8906C87.7969 74.9844 87.375 76.3438 86.625 77.5312C85.8854 78.7188 84.849 79.6458 83.5156 80.3125C82.1927 80.9792 80.599 81.3125 78.7344 81.3125C77.276 81.3125 75.9688 81.0625 74.8125 80.5625C73.6562 80.0521 72.6667 79.3229 71.8438 78.375C71.0312 77.4271 70.4115 76.2812 69.9844 74.9375C69.5573 73.5938 69.3438 72.0885 69.3438 70.4219V68.8438C69.3438 67.1771 69.5625 65.6719 70 64.3281C70.4479 62.974 71.0833 61.8229 71.9062 60.875C72.7396 59.9271 73.7344 59.1979 74.8906 58.6875C76.0469 58.1771 77.3385 57.9219 78.7656 57.9219C80.6615 57.9219 82.2604 58.2656 83.5625 58.9531C84.875 59.6406 85.8906 60.5885 86.6094 61.7969C87.3385 63.0052 87.776 64.3802 87.9219 65.9219H83.2344C83.1823 65.0052 83 64.2292 82.6875 63.5938C82.375 62.9479 81.901 62.4635 81.2656 62.1406C80.6406 61.8073 79.8073 61.6406 78.7656 61.6406C77.9844 61.6406 77.3021 61.7865 76.7188 62.0781C76.1354 62.3698 75.6458 62.8125 75.25 63.4062C74.8542 64 74.5573 64.75 74.3594 65.6562C74.1719 66.5521 74.0781 67.6042 74.0781 68.8125V70.4219C74.0781 71.599 74.1667 72.6354 74.3438 73.5312C74.5208 74.4167 74.7917 75.1667 75.1562 75.7812C75.5312 76.3854 76.0104 76.8438 76.5938 77.1562C77.1875 77.4583 77.901 77.6094 78.7344 77.6094C79.7135 77.6094 80.5208 77.4531 81.1562 77.1406C81.7917 76.8281 82.276 76.3646 82.6094 75.75C82.9531 75.1354 83.1562 74.3698 83.2188 73.4531ZM99.8125 77.1875V69.6562C99.8125 69.1146 99.724 68.651 99.5469 68.2656C99.3698 67.8698 99.0938 67.5625 98.7188 67.3438C98.3542 67.125 97.8802 67.0156 97.2969 67.0156C96.7969 67.0156 96.3646 67.1042 96 67.2812C95.6354 67.4479 95.3542 67.6927 95.1562 68.0156C94.9583 68.3281 94.8594 68.6979 94.8594 69.125H90.3594C90.3594 68.4062 90.526 67.724 90.8594 67.0781C91.1927 66.4323 91.6771 65.8646 92.3125 65.375C92.9479 64.875 93.7031 64.4844 94.5781 64.2031C95.4635 63.9219 96.4531 63.7812 97.5469 63.7812C98.8594 63.7812 100.026 64 101.047 64.4375C102.068 64.875 102.87 65.5312 103.453 66.4062C104.047 67.2812 104.344 68.375 104.344 69.6875V76.9219C104.344 77.849 104.401 78.6094 104.516 79.2031C104.63 79.7865 104.797 80.2969 105.016 80.7344V81H100.469C100.25 80.5417 100.083 79.9688 99.9688 79.2812C99.8646 78.5833 99.8125 77.8854 99.8125 77.1875ZM100.406 70.7031L100.438 73.25H97.9219C97.3281 73.25 96.8125 73.3177 96.375 73.4531C95.9375 73.5885 95.5781 73.7812 95.2969 74.0312C95.0156 74.2708 94.8073 74.5521 94.6719 74.875C94.5469 75.1979 94.4844 75.5521 94.4844 75.9375C94.4844 76.3229 94.5729 76.6719 94.75 76.9844C94.9271 77.2865 95.1823 77.526 95.5156 77.7031C95.849 77.8698 96.2396 77.9531 96.6875 77.9531C97.3646 77.9531 97.9531 77.8177 98.4531 77.5469C98.9531 77.276 99.3385 76.9427 99.6094 76.5469C99.8906 76.151 100.036 75.776 100.047 75.4219L101.234 77.3281C101.068 77.7552 100.839 78.1979 100.547 78.6562C100.266 79.1146 99.9062 79.5469 99.4688 79.9531C99.0312 80.349 98.5052 80.6771 97.8906 80.9375C97.276 81.1875 96.5469 81.3125 95.7031 81.3125C94.6302 81.3125 93.6562 81.099 92.7812 80.6719C91.9167 80.2344 91.2292 79.6354 90.7188 78.875C90.2188 78.1042 89.9688 77.2292 89.9688 76.25C89.9688 75.3646 90.1354 74.5781 90.4688 73.8906C90.8021 73.2031 91.2917 72.625 91.9375 72.1562C92.5938 71.6771 93.4115 71.3177 94.3906 71.0781C95.3698 70.8281 96.5052 70.7031 97.7969 70.7031H100.406ZM95.3906 61.8125L98.4531 57H103.344L99.0469 61.8125H95.3906ZM112.562 57V81H108.047V57H112.562ZM123.266 77.7969C123.818 77.7969 124.307 77.6927 124.734 77.4844C125.161 77.2656 125.495 76.9635 125.734 76.5781C125.984 76.1823 126.115 75.7188 126.125 75.1875H130.359C130.349 76.375 130.031 77.4323 129.406 78.3594C128.781 79.276 127.943 80 126.891 80.5312C125.839 81.0521 124.661 81.3125 123.359 81.3125C122.047 81.3125 120.901 81.0938 119.922 80.6562C118.953 80.2188 118.146 79.6146 117.5 78.8438C116.854 78.0625 116.37 77.1562 116.047 76.125C115.724 75.0833 115.562 73.9688 115.562 72.7812V72.3281C115.562 71.1302 115.724 70.0156 116.047 68.9844C116.37 67.9427 116.854 67.0365 117.5 66.2656C118.146 65.4844 118.953 64.875 119.922 64.4375C120.891 64 122.026 63.7812 123.328 63.7812C124.714 63.7812 125.927 64.0469 126.969 64.5781C128.021 65.1094 128.844 65.8698 129.438 66.8594C130.042 67.8385 130.349 69 130.359 70.3438H126.125C126.115 69.7812 125.995 69.2708 125.766 68.8125C125.547 68.3542 125.224 67.9896 124.797 67.7188C124.38 67.4375 123.865 67.2969 123.25 67.2969C122.594 67.2969 122.057 67.4375 121.641 67.7188C121.224 67.9896 120.901 68.3646 120.672 68.8438C120.443 69.3125 120.281 69.849 120.188 70.4531C120.104 71.0469 120.062 71.6719 120.062 72.3281V72.7812C120.062 73.4375 120.104 74.0677 120.188 74.6719C120.271 75.276 120.427 75.8125 120.656 76.2812C120.896 76.75 121.224 77.1198 121.641 77.3906C122.057 77.6615 122.599 77.7969 123.266 77.7969ZM142.969 76.9531V64.0938H147.469V81H143.234L142.969 76.9531ZM143.469 73.4844L144.797 73.4531C144.797 74.5781 144.667 75.625 144.406 76.5938C144.146 77.5521 143.755 78.3854 143.234 79.0938C142.714 79.7917 142.057 80.3385 141.266 80.7344C140.474 81.1198 139.542 81.3125 138.469 81.3125C137.646 81.3125 136.885 81.1979 136.188 80.9688C135.5 80.7292 134.906 80.3594 134.406 79.8594C133.917 79.349 133.531 78.6979 133.25 77.9062C132.979 77.1042 132.844 76.1406 132.844 75.0156V64.0938H137.344V75.0469C137.344 75.5469 137.401 75.9688 137.516 76.3125C137.641 76.6562 137.812 76.9375 138.031 77.1562C138.25 77.375 138.505 77.5312 138.797 77.625C139.099 77.7188 139.432 77.7656 139.797 77.7656C140.724 77.7656 141.453 77.5781 141.984 77.2031C142.526 76.8281 142.906 76.3177 143.125 75.6719C143.354 75.0156 143.469 74.2865 143.469 73.4844ZM155.656 57V81H151.141V57H155.656ZM158.656 72.7188V72.3906C158.656 71.151 158.833 70.0104 159.188 68.9688C159.542 67.9167 160.057 67.0052 160.734 66.2344C161.411 65.4635 162.245 64.8646 163.234 64.4375C164.224 64 165.359 63.7812 166.641 63.7812C167.922 63.7812 169.062 64 170.062 64.4375C171.062 64.8646 171.901 65.4635 172.578 66.2344C173.266 67.0052 173.786 67.9167 174.141 68.9688C174.495 70.0104 174.672 71.151 174.672 72.3906V72.7188C174.672 73.9479 174.495 75.0885 174.141 76.1406C173.786 77.1823 173.266 78.0938 172.578 78.875C171.901 79.6458 171.068 80.2448 170.078 80.6719C169.089 81.099 167.953 81.3125 166.672 81.3125C165.391 81.3125 164.25 81.099 163.25 80.6719C162.26 80.2448 161.422 79.6458 160.734 78.875C160.057 78.0938 159.542 77.1823 159.188 76.1406C158.833 75.0885 158.656 73.9479 158.656 72.7188ZM163.156 72.3906V72.7188C163.156 73.4271 163.219 74.0885 163.344 74.7031C163.469 75.3177 163.667 75.8594 163.938 76.3281C164.219 76.7865 164.583 77.1458 165.031 77.4062C165.479 77.6667 166.026 77.7969 166.672 77.7969C167.297 77.7969 167.833 77.6667 168.281 77.4062C168.729 77.1458 169.089 76.7865 169.359 76.3281C169.63 75.8594 169.828 75.3177 169.953 74.7031C170.089 74.0885 170.156 73.4271 170.156 72.7188V72.3906C170.156 71.7031 170.089 71.0573 169.953 70.4531C169.828 69.8385 169.625 69.2969 169.344 68.8281C169.073 68.349 168.714 67.974 168.266 67.7031C167.818 67.4323 167.276 67.2969 166.641 67.2969C166.005 67.2969 165.464 67.4323 165.016 67.7031C164.578 67.974 164.219 68.349 163.938 68.8281C163.667 69.2969 163.469 69.8385 163.344 70.4531C163.219 71.0573 163.156 71.7031 163.156 72.3906ZM195.391 77.3125V57H199.922V81H195.844L195.391 77.3125ZM184.703 72.75V72.4219C184.703 71.1302 184.849 69.9583 185.141 68.9062C185.432 67.8438 185.859 66.9323 186.422 66.1719C186.984 65.4115 187.677 64.8229 188.5 64.4062C189.323 63.9896 190.26 63.7812 191.312 63.7812C192.302 63.7812 193.167 63.9896 193.906 64.4062C194.656 64.8229 195.292 65.4167 195.812 66.1875C196.344 66.9479 196.771 67.849 197.094 68.8906C197.417 69.9219 197.651 71.0521 197.797 72.2812V73C197.651 74.1771 197.417 75.2708 197.094 76.2812C196.771 77.2917 196.344 78.1771 195.812 78.9375C195.292 79.6875 194.656 80.2708 193.906 80.6875C193.156 81.1042 192.281 81.3125 191.281 81.3125C190.229 81.3125 189.292 81.099 188.469 80.6719C187.656 80.2448 186.969 79.6458 186.406 78.875C185.854 78.1042 185.432 77.1979 185.141 76.1562C184.849 75.1146 184.703 73.9792 184.703 72.75ZM189.203 72.4219V72.75C189.203 73.4479 189.255 74.099 189.359 74.7031C189.474 75.3073 189.656 75.8438 189.906 76.3125C190.167 76.7708 190.5 77.1302 190.906 77.3906C191.323 77.6406 191.828 77.7656 192.422 77.7656C193.193 77.7656 193.828 77.5938 194.328 77.25C194.828 76.8958 195.208 76.4115 195.469 75.7969C195.74 75.1823 195.896 74.474 195.938 73.6719V71.625C195.906 70.9688 195.812 70.3802 195.656 69.8594C195.51 69.3281 195.292 68.875 195 68.5C194.719 68.125 194.365 67.8333 193.938 67.625C193.521 67.4167 193.026 67.3125 192.453 67.3125C191.87 67.3125 191.37 67.4479 190.953 67.7188C190.536 67.9792 190.198 68.3385 189.938 68.7969C189.688 69.2552 189.5 69.7969 189.375 70.4219C189.26 71.0365 189.203 71.7031 189.203 72.4219ZM211.219 81.3125C209.906 81.3125 208.729 81.1042 207.688 80.6875C206.646 80.2604 205.76 79.6719 205.031 78.9219C204.312 78.1719 203.76 77.3021 203.375 76.3125C202.99 75.3125 202.797 74.25 202.797 73.125V72.5C202.797 71.2188 202.979 70.0469 203.344 68.9844C203.708 67.9219 204.229 67 204.906 66.2188C205.594 65.4375 206.427 64.8385 207.406 64.4219C208.385 63.9948 209.49 63.7812 210.719 63.7812C211.917 63.7812 212.979 63.9792 213.906 64.375C214.833 64.7708 215.609 65.3333 216.234 66.0625C216.87 66.7917 217.349 67.6667 217.672 68.6875C217.995 69.6979 218.156 70.8229 218.156 72.0625V73.9375H204.719V70.9375H213.734V70.5938C213.734 69.9688 213.62 69.4115 213.391 68.9219C213.172 68.4219 212.839 68.026 212.391 67.7344C211.943 67.4427 211.37 67.2969 210.672 67.2969C210.078 67.2969 209.568 67.4271 209.141 67.6875C208.714 67.9479 208.365 68.3125 208.094 68.7812C207.833 69.25 207.635 69.8021 207.5 70.4375C207.375 71.0625 207.312 71.75 207.312 72.5V73.125C207.312 73.8021 207.406 74.4271 207.594 75C207.792 75.5729 208.068 76.0677 208.422 76.4844C208.786 76.901 209.224 77.224 209.734 77.4531C210.255 77.6823 210.844 77.7969 211.5 77.7969C212.312 77.7969 213.068 77.6406 213.766 77.3281C214.474 77.0052 215.083 76.5208 215.594 75.875L217.781 78.25C217.427 78.7604 216.943 79.25 216.328 79.7188C215.724 80.1875 214.995 80.5729 214.141 80.875C213.286 81.1667 212.312 81.3125 211.219 81.3125ZM233.953 58.25V81H229.281V58.25H233.953ZM240.484 58.25H244.453L250.297 74.9531L256.141 58.25H260.109L251.891 81H248.703L240.484 58.25ZM238.344 58.25H242.297L243.016 74.5312V81H238.344V58.25ZM258.297 58.25H262.266V81H257.578V74.5312L258.297 58.25ZM279.562 73.4531H284.234C284.141 74.9844 283.719 76.3438 282.969 77.5312C282.229 78.7188 281.193 79.6458 279.859 80.3125C278.536 80.9792 276.943 81.3125 275.078 81.3125C273.62 81.3125 272.312 81.0625 271.156 80.5625C270 80.0521 269.01 79.3229 268.188 78.375C267.375 77.4271 266.755 76.2812 266.328 74.9375C265.901 73.5938 265.688 72.0885 265.688 70.4219V68.8438C265.688 67.1771 265.906 65.6719 266.344 64.3281C266.792 62.974 267.427 61.8229 268.25 60.875C269.083 59.9271 270.078 59.1979 271.234 58.6875C272.391 58.1771 273.682 57.9219 275.109 57.9219C277.005 57.9219 278.604 58.2656 279.906 58.9531C281.219 59.6406 282.234 60.5885 282.953 61.7969C283.682 63.0052 284.12 64.3802 284.266 65.9219H279.578C279.526 65.0052 279.344 64.2292 279.031 63.5938C278.719 62.9479 278.245 62.4635 277.609 62.1406C276.984 61.8073 276.151 61.6406 275.109 61.6406C274.328 61.6406 273.646 61.7865 273.062 62.0781C272.479 62.3698 271.99 62.8125 271.594 63.4062C271.198 64 270.901 64.75 270.703 65.6562C270.516 66.5521 270.422 67.6042 270.422 68.8125V70.4219C270.422 71.599 270.51 72.6354 270.688 73.5312C270.865 74.4167 271.135 75.1667 271.5 75.7812C271.875 76.3854 272.354 76.8438 272.938 77.1562C273.531 77.4583 274.245 77.6094 275.078 77.6094C276.057 77.6094 276.865 77.4531 277.5 77.1406C278.135 76.8281 278.62 76.3646 278.953 75.75C279.297 75.1354 279.5 74.3698 279.562 73.4531Z" fill="#0C3440"/>
<path d="M72.8262 132.097H70.167V131.023H72.8262C73.3411 131.023 73.7581 130.941 74.0771 130.777C74.3962 130.613 74.6286 130.385 74.7744 130.094C74.9248 129.802 75 129.469 75 129.096C75 128.754 74.9248 128.433 74.7744 128.132C74.6286 127.831 74.3962 127.59 74.0771 127.407C73.7581 127.22 73.3411 127.127 72.8262 127.127H70.4746V136H69.1553V126.047H72.8262C73.5781 126.047 74.2139 126.177 74.7334 126.437C75.2529 126.696 75.6471 127.056 75.916 127.517C76.1849 127.972 76.3193 128.494 76.3193 129.082C76.3193 129.72 76.1849 130.265 75.916 130.716C75.6471 131.167 75.2529 131.511 74.7334 131.748C74.2139 131.98 73.5781 132.097 72.8262 132.097ZM80.7695 136.137C80.2546 136.137 79.7874 136.05 79.3682 135.877C78.9535 135.699 78.5957 135.451 78.2949 135.132C77.9987 134.813 77.7708 134.435 77.6113 133.997C77.4518 133.56 77.3721 133.081 77.3721 132.562V132.274C77.3721 131.673 77.4609 131.137 77.6387 130.668C77.8164 130.194 78.0579 129.793 78.3633 129.465C78.6686 129.137 79.015 128.888 79.4023 128.72C79.7897 128.551 80.1908 128.467 80.6055 128.467C81.1341 128.467 81.5898 128.558 81.9727 128.74C82.36 128.923 82.6768 129.178 82.9229 129.506C83.1689 129.829 83.3512 130.212 83.4697 130.654C83.5882 131.092 83.6475 131.57 83.6475 132.09V132.657H78.124V131.625H82.3828V131.529C82.3646 131.201 82.2962 130.882 82.1777 130.572C82.0638 130.262 81.8815 130.007 81.6309 129.807C81.3802 129.606 81.0384 129.506 80.6055 129.506C80.3184 129.506 80.054 129.567 79.8125 129.69C79.571 129.809 79.3636 129.987 79.1904 130.224C79.0173 130.461 78.8828 130.75 78.7871 131.092C78.6914 131.434 78.6436 131.828 78.6436 132.274V132.562C78.6436 132.912 78.6914 133.243 78.7871 133.553C78.8874 133.858 79.0309 134.127 79.2178 134.359C79.4092 134.592 79.6393 134.774 79.9082 134.906C80.1816 135.038 80.4915 135.104 80.8379 135.104C81.2845 135.104 81.6628 135.013 81.9727 134.831C82.2826 134.649 82.5537 134.405 82.7861 134.1L83.5518 134.708C83.3923 134.95 83.1895 135.18 82.9434 135.398C82.6973 135.617 82.3942 135.795 82.0342 135.932C81.6787 136.068 81.2572 136.137 80.7695 136.137ZM89.4307 134.038C89.4307 133.856 89.3896 133.687 89.3076 133.532C89.2301 133.373 89.0684 133.229 88.8223 133.102C88.5807 132.969 88.2161 132.855 87.7285 132.76C87.3184 132.673 86.9469 132.571 86.6143 132.452C86.2861 132.334 86.0059 132.19 85.7734 132.021C85.5456 131.853 85.3701 131.655 85.2471 131.427C85.124 131.199 85.0625 130.932 85.0625 130.627C85.0625 130.335 85.1263 130.06 85.2539 129.8C85.3861 129.54 85.5706 129.31 85.8076 129.109C86.0492 128.909 86.3385 128.752 86.6758 128.638C87.013 128.524 87.389 128.467 87.8037 128.467C88.3962 128.467 88.902 128.572 89.3213 128.781C89.7406 128.991 90.0618 129.271 90.2852 129.622C90.5085 129.968 90.6201 130.354 90.6201 130.777H89.3555C89.3555 130.572 89.2939 130.374 89.1709 130.183C89.0524 129.987 88.877 129.825 88.6445 129.697C88.4167 129.57 88.1364 129.506 87.8037 129.506C87.4528 129.506 87.168 129.561 86.9492 129.67C86.735 129.775 86.5778 129.909 86.4775 130.073C86.3818 130.237 86.334 130.41 86.334 130.593C86.334 130.729 86.3568 130.853 86.4023 130.962C86.4525 131.067 86.5391 131.165 86.6621 131.256C86.7852 131.342 86.9583 131.424 87.1816 131.502C87.4049 131.579 87.6898 131.657 88.0361 131.734C88.6423 131.871 89.1413 132.035 89.5332 132.227C89.9251 132.418 90.2168 132.653 90.4082 132.931C90.5996 133.209 90.6953 133.546 90.6953 133.942C90.6953 134.266 90.627 134.562 90.4902 134.831C90.3581 135.1 90.1644 135.332 89.9092 135.528C89.6585 135.72 89.3577 135.87 89.0068 135.979C88.6605 136.084 88.2708 136.137 87.8379 136.137C87.1862 136.137 86.6348 136.021 86.1836 135.788C85.7324 135.556 85.3906 135.255 85.1582 134.886C84.9258 134.517 84.8096 134.127 84.8096 133.717H86.0811C86.0993 134.063 86.1995 134.339 86.3818 134.544C86.5641 134.744 86.7874 134.888 87.0518 134.975C87.3161 135.057 87.5781 135.098 87.8379 135.098C88.1842 135.098 88.4736 135.052 88.7061 134.961C88.943 134.87 89.123 134.744 89.2461 134.585C89.3691 134.425 89.4307 134.243 89.4307 134.038ZM92.0215 132.384V132.227C92.0215 131.693 92.099 131.199 92.2539 130.743C92.4089 130.283 92.6322 129.884 92.9238 129.547C93.2155 129.205 93.5687 128.941 93.9834 128.754C94.3981 128.562 94.863 128.467 95.3779 128.467C95.8975 128.467 96.3646 128.562 96.7793 128.754C97.1986 128.941 97.554 129.205 97.8457 129.547C98.1419 129.884 98.3675 130.283 98.5225 130.743C98.6774 131.199 98.7549 131.693 98.7549 132.227V132.384C98.7549 132.917 98.6774 133.411 98.5225 133.867C98.3675 134.323 98.1419 134.722 97.8457 135.063C97.554 135.401 97.2008 135.665 96.7861 135.856C96.376 136.043 95.9111 136.137 95.3916 136.137C94.8721 136.137 94.4049 136.043 93.9902 135.856C93.5755 135.665 93.2201 135.401 92.9238 135.063C92.6322 134.722 92.4089 134.323 92.2539 133.867C92.099 133.411 92.0215 132.917 92.0215 132.384ZM93.2861 132.227V132.384C93.2861 132.753 93.3294 133.102 93.416 133.43C93.5026 133.753 93.6325 134.04 93.8057 134.291C93.9834 134.542 94.2044 134.74 94.4688 134.886C94.7331 135.027 95.0407 135.098 95.3916 135.098C95.738 135.098 96.041 135.027 96.3008 134.886C96.5651 134.74 96.7839 134.542 96.957 134.291C97.1302 134.04 97.2601 133.753 97.3467 133.43C97.4378 133.102 97.4834 132.753 97.4834 132.384V132.227C97.4834 131.862 97.4378 131.518 97.3467 131.194C97.2601 130.866 97.1279 130.577 96.9502 130.326C96.777 130.071 96.5583 129.87 96.2939 129.725C96.0342 129.579 95.7288 129.506 95.3779 129.506C95.0316 129.506 94.7262 129.579 94.4619 129.725C94.2021 129.87 93.9834 130.071 93.8057 130.326C93.6325 130.577 93.5026 130.866 93.416 131.194C93.3294 131.518 93.2861 131.862 93.2861 132.227ZM103.766 132.021V131.953C103.766 130.96 103.877 130.062 104.101 129.26C104.324 128.453 104.609 127.747 104.955 127.141C105.301 126.535 105.666 126.033 106.049 125.637C106.432 125.236 106.785 124.946 107.108 124.769L107.375 125.603C107.106 125.808 106.833 126.09 106.555 126.45C106.281 126.81 106.028 127.252 105.796 127.776C105.568 128.3 105.383 128.909 105.242 129.602C105.101 130.294 105.03 131.074 105.03 131.939V132.035C105.03 132.901 105.101 133.683 105.242 134.38C105.383 135.073 105.568 135.683 105.796 136.212C106.028 136.741 106.281 137.189 106.555 137.559C106.833 137.932 107.106 138.229 107.375 138.447L107.108 139.213C106.785 139.035 106.432 138.746 106.049 138.345C105.666 137.948 105.301 137.447 104.955 136.841C104.609 136.239 104.324 135.535 104.101 134.729C103.877 133.922 103.766 133.02 103.766 132.021ZM109.884 125.5V136H108.612V125.5H109.884ZM114.402 128.604L111.176 132.056L109.371 133.929L109.269 132.582L110.561 131.037L112.857 128.604H114.402ZM113.247 136L110.608 132.473L111.265 131.345L114.737 136H113.247ZM120.363 128.604H121.512V135.843C121.512 136.494 121.38 137.05 121.115 137.511C120.851 137.971 120.482 138.32 120.008 138.557C119.538 138.798 118.996 138.919 118.381 138.919C118.126 138.919 117.825 138.878 117.479 138.796C117.137 138.718 116.799 138.584 116.467 138.393C116.139 138.206 115.863 137.953 115.64 137.634L116.303 136.882C116.613 137.256 116.936 137.515 117.273 137.661C117.615 137.807 117.952 137.88 118.285 137.88C118.686 137.88 119.033 137.805 119.324 137.654C119.616 137.504 119.841 137.281 120.001 136.984C120.165 136.693 120.247 136.333 120.247 135.904V130.23L120.363 128.604ZM115.271 132.384V132.24C115.271 131.675 115.337 131.162 115.469 130.702C115.605 130.237 115.799 129.839 116.05 129.506C116.305 129.173 116.613 128.918 116.973 128.74C117.333 128.558 117.738 128.467 118.189 128.467C118.654 128.467 119.06 128.549 119.406 128.713C119.757 128.872 120.053 129.107 120.295 129.417C120.541 129.722 120.735 130.091 120.876 130.524C121.017 130.957 121.115 131.447 121.17 131.994V132.623C121.12 133.165 121.022 133.653 120.876 134.086C120.735 134.519 120.541 134.888 120.295 135.193C120.053 135.499 119.757 135.733 119.406 135.897C119.055 136.057 118.645 136.137 118.176 136.137C117.734 136.137 117.333 136.043 116.973 135.856C116.617 135.67 116.312 135.408 116.057 135.07C115.801 134.733 115.605 134.337 115.469 133.881C115.337 133.421 115.271 132.922 115.271 132.384ZM116.535 132.24V132.384C116.535 132.753 116.572 133.099 116.645 133.423C116.722 133.746 116.838 134.031 116.993 134.277C117.153 134.523 117.355 134.717 117.602 134.858C117.848 134.995 118.142 135.063 118.483 135.063C118.903 135.063 119.249 134.975 119.522 134.797C119.796 134.619 120.012 134.384 120.172 134.093C120.336 133.801 120.464 133.484 120.555 133.143V131.495C120.505 131.244 120.427 131.003 120.322 130.771C120.222 130.534 120.09 130.324 119.926 130.142C119.766 129.955 119.568 129.807 119.331 129.697C119.094 129.588 118.816 129.533 118.497 129.533C118.151 129.533 117.852 129.606 117.602 129.752C117.355 129.893 117.153 130.089 116.993 130.34C116.838 130.586 116.722 130.873 116.645 131.201C116.572 131.525 116.535 131.871 116.535 132.24ZM126.345 131.953V132.021C126.345 133.02 126.233 133.922 126.01 134.729C125.786 135.535 125.502 136.239 125.155 136.841C124.809 137.447 124.444 137.948 124.062 138.345C123.679 138.746 123.326 139.035 123.002 139.213L122.735 138.447C123.004 138.242 123.275 137.955 123.549 137.586C123.822 137.221 124.075 136.77 124.308 136.232C124.54 135.699 124.727 135.084 124.868 134.387C125.009 133.685 125.08 132.901 125.08 132.035V131.939C125.08 131.074 125.005 130.292 124.854 129.595C124.704 128.893 124.508 128.275 124.267 127.742C124.03 127.209 123.774 126.76 123.501 126.396C123.232 126.026 122.977 125.742 122.735 125.541L123.002 124.769C123.326 124.946 123.679 125.236 124.062 125.637C124.444 126.033 124.809 126.535 125.155 127.141C125.502 127.747 125.786 128.453 126.01 129.26C126.233 130.062 126.345 130.96 126.345 131.953Z" fill="#00453A"/>
<rect x="68.5" y="148.5" width="299" height="51" rx="3.5" fill="#DCE2E9"/>
<path d="M90.4922 167.609H90.6172V168.836H90.4922C89.7266 168.836 89.0859 168.961 88.5703 169.211C88.0547 169.456 87.6458 169.786 87.3438 170.203C87.0417 170.615 86.8229 171.078 86.6875 171.594C86.5573 172.109 86.4922 172.633 86.4922 173.164V174.836C86.4922 175.341 86.5521 175.789 86.6719 176.18C86.7917 176.565 86.9557 176.891 87.1641 177.156C87.3724 177.422 87.6068 177.622 87.8672 177.758C88.1328 177.893 88.4089 177.961 88.6953 177.961C89.0286 177.961 89.3255 177.898 89.5859 177.773C89.8464 177.643 90.0651 177.464 90.2422 177.234C90.4245 177 90.5625 176.724 90.6562 176.406C90.75 176.089 90.7969 175.74 90.7969 175.359C90.7969 175.021 90.7552 174.695 90.6719 174.383C90.5885 174.065 90.4609 173.784 90.2891 173.539C90.1172 173.289 89.901 173.094 89.6406 172.953C89.3854 172.807 89.0807 172.734 88.7266 172.734C88.3255 172.734 87.9505 172.833 87.6016 173.031C87.2578 173.224 86.974 173.479 86.75 173.797C86.5312 174.109 86.4062 174.451 86.375 174.82L85.6094 174.812C85.6823 174.229 85.8177 173.732 86.0156 173.32C86.2188 172.904 86.4688 172.565 86.7656 172.305C87.0677 172.039 87.4036 171.846 87.7734 171.727C88.1484 171.602 88.5443 171.539 88.9609 171.539C89.5286 171.539 90.0182 171.646 90.4297 171.859C90.8411 172.073 91.1797 172.359 91.4453 172.719C91.7109 173.073 91.9062 173.474 92.0312 173.922C92.1615 174.365 92.2266 174.82 92.2266 175.289C92.2266 175.826 92.151 176.328 92 176.797C91.849 177.266 91.6224 177.677 91.3203 178.031C91.0234 178.385 90.6562 178.661 90.2188 178.859C89.7812 179.057 89.2734 179.156 88.6953 179.156C88.0807 179.156 87.5443 179.031 87.0859 178.781C86.6276 178.526 86.2474 178.188 85.9453 177.766C85.6432 177.344 85.4167 176.875 85.2656 176.359C85.1146 175.844 85.0391 175.32 85.0391 174.789V174.109C85.0391 173.307 85.1198 172.521 85.2812 171.75C85.4427 170.979 85.7214 170.281 86.1172 169.656C86.5182 169.031 87.0729 168.534 87.7812 168.164C88.4896 167.794 89.3932 167.609 90.4922 167.609ZM101.086 172.406V174.141C101.086 175.073 101.003 175.859 100.836 176.5C100.669 177.141 100.43 177.656 100.117 178.047C99.8047 178.438 99.4271 178.721 98.9844 178.898C98.5469 179.07 98.0521 179.156 97.5 179.156C97.0625 179.156 96.6589 179.102 96.2891 178.992C95.9193 178.883 95.5859 178.708 95.2891 178.469C94.9974 178.224 94.7474 177.906 94.5391 177.516C94.3307 177.125 94.1719 176.651 94.0625 176.094C93.9531 175.536 93.8984 174.885 93.8984 174.141V172.406C93.8984 171.474 93.9818 170.693 94.1484 170.062C94.3203 169.432 94.5625 168.927 94.875 168.547C95.1875 168.161 95.5625 167.885 96 167.719C96.4427 167.552 96.9375 167.469 97.4844 167.469C97.9271 167.469 98.3333 167.523 98.7031 167.633C99.0781 167.737 99.4115 167.906 99.7031 168.141C99.9948 168.37 100.242 168.677 100.445 169.062C100.654 169.443 100.812 169.909 100.922 170.461C101.031 171.013 101.086 171.661 101.086 172.406ZM99.6328 174.375V172.164C99.6328 171.654 99.6016 171.206 99.5391 170.82C99.4818 170.43 99.3958 170.096 99.2812 169.82C99.1667 169.544 99.0208 169.32 98.8438 169.148C98.6719 168.977 98.4714 168.852 98.2422 168.773C98.0182 168.69 97.7656 168.648 97.4844 168.648C97.1406 168.648 96.8359 168.714 96.5703 168.844C96.3047 168.969 96.0807 169.169 95.8984 169.445C95.7214 169.721 95.5859 170.083 95.4922 170.531C95.3984 170.979 95.3516 171.523 95.3516 172.164V174.375C95.3516 174.885 95.3802 175.336 95.4375 175.727C95.5 176.117 95.5911 176.456 95.7109 176.742C95.8307 177.023 95.9766 177.255 96.1484 177.438C96.3203 177.62 96.5182 177.755 96.7422 177.844C96.9714 177.927 97.224 177.969 97.5 177.969C97.8542 177.969 98.1641 177.901 98.4297 177.766C98.6953 177.63 98.9167 177.419 99.0938 177.133C99.276 176.841 99.4115 176.469 99.5 176.016C99.5885 175.557 99.6328 175.01 99.6328 174.375Z" fill="#212529"/>
<rect x="68.5" y="148.5" width="299" height="51" rx="3.5" stroke="#02799D"/>
<path d="M72.8398 220.929L69.5449 230H68.1982L71.9922 220.047H72.8604L72.8398 220.929ZM75.6016 230L72.2998 220.929L72.2793 220.047H73.1475L76.9551 230H75.6016ZM75.4307 226.315V227.396H69.8389V226.315H75.4307ZM79.4707 219.5V230H78.1992V219.5H79.4707ZM84.5977 222.604V223.574H80.5986V222.604H84.5977ZM81.9521 220.806H83.2168V228.168C83.2168 228.419 83.2555 228.608 83.333 228.735C83.4105 228.863 83.5107 228.947 83.6338 228.988C83.7568 229.029 83.889 229.05 84.0303 229.05C84.1351 229.05 84.2445 229.041 84.3584 229.022C84.4769 229 84.5658 228.981 84.625 228.968L84.6318 230C84.5316 230.032 84.3994 230.062 84.2354 230.089C84.0758 230.121 83.8822 230.137 83.6543 230.137C83.3444 230.137 83.0596 230.075 82.7998 229.952C82.54 229.829 82.3327 229.624 82.1777 229.337C82.0273 229.045 81.9521 228.653 81.9521 228.161V220.806ZM90.6064 228.291V222.604H91.8779V230H90.668L90.6064 228.291ZM90.8457 226.732L91.3721 226.719C91.3721 227.211 91.3197 227.667 91.2148 228.086C91.1146 228.501 90.9505 228.861 90.7227 229.166C90.4948 229.471 90.1963 229.711 89.8271 229.884C89.458 230.052 89.0091 230.137 88.4805 230.137C88.1204 230.137 87.79 230.084 87.4893 229.979C87.193 229.875 86.9378 229.713 86.7236 229.494C86.5094 229.275 86.3431 228.991 86.2246 228.64C86.1107 228.289 86.0537 227.867 86.0537 227.375V222.604H87.3184V227.389C87.3184 227.721 87.3548 227.997 87.4277 228.216C87.5052 228.43 87.6077 228.601 87.7354 228.729C87.8675 228.852 88.0133 228.938 88.1729 228.988C88.3369 229.038 88.5055 229.063 88.6787 229.063C89.2165 229.063 89.6426 228.961 89.957 228.756C90.2715 228.546 90.4971 228.266 90.6338 227.915C90.7751 227.56 90.8457 227.165 90.8457 226.732ZM95.0703 223.766V230H93.8057V222.604H95.0361L95.0703 223.766ZM97.3809 222.562L97.374 223.738C97.2692 223.715 97.1689 223.702 97.0732 223.697C96.9821 223.688 96.8773 223.684 96.7588 223.684C96.4671 223.684 96.2096 223.729 95.9863 223.82C95.763 223.911 95.5739 224.039 95.4189 224.203C95.264 224.367 95.141 224.563 95.0498 224.791C94.9632 225.014 94.9062 225.26 94.8789 225.529L94.5234 225.734C94.5234 225.288 94.5667 224.868 94.6533 224.477C94.7445 224.085 94.8835 223.738 95.0703 223.438C95.2572 223.132 95.4941 222.895 95.7812 222.727C96.0729 222.553 96.4193 222.467 96.8203 222.467C96.9115 222.467 97.0163 222.478 97.1348 222.501C97.2533 222.519 97.3353 222.54 97.3809 222.562ZM102.638 228.735V224.928C102.638 224.636 102.578 224.383 102.46 224.169C102.346 223.95 102.173 223.782 101.94 223.663C101.708 223.545 101.421 223.485 101.079 223.485C100.76 223.485 100.48 223.54 100.238 223.649C100.001 223.759 99.8145 223.902 99.6777 224.08C99.5456 224.258 99.4795 224.449 99.4795 224.654H98.2148C98.2148 224.39 98.2832 224.128 98.4199 223.868C98.5566 223.608 98.7526 223.374 99.0078 223.164C99.2676 222.95 99.5775 222.781 99.9375 222.658C100.302 222.531 100.708 222.467 101.154 222.467C101.692 222.467 102.166 222.558 102.576 222.74C102.991 222.923 103.314 223.198 103.547 223.567C103.784 223.932 103.902 224.39 103.902 224.941V228.387C103.902 228.633 103.923 228.895 103.964 229.173C104.009 229.451 104.076 229.69 104.162 229.891V230H102.843C102.779 229.854 102.729 229.66 102.692 229.419C102.656 229.173 102.638 228.945 102.638 228.735ZM102.856 225.516L102.87 226.404H101.592C101.232 226.404 100.91 226.434 100.628 226.493C100.345 226.548 100.108 226.632 99.917 226.746C99.7256 226.86 99.5798 227.004 99.4795 227.177C99.3792 227.345 99.3291 227.544 99.3291 227.771C99.3291 228.004 99.3815 228.216 99.4863 228.407C99.5911 228.599 99.7484 228.751 99.958 228.865C100.172 228.975 100.434 229.029 100.744 229.029C101.132 229.029 101.473 228.947 101.77 228.783C102.066 228.619 102.3 228.419 102.474 228.182C102.651 227.945 102.747 227.715 102.761 227.491L103.301 228.1C103.269 228.291 103.182 228.503 103.041 228.735C102.9 228.968 102.711 229.191 102.474 229.405C102.241 229.615 101.963 229.79 101.64 229.932C101.321 230.068 100.961 230.137 100.56 230.137C100.058 230.137 99.6185 230.039 99.2402 229.843C98.8665 229.647 98.5749 229.385 98.3652 229.057C98.1602 228.724 98.0576 228.353 98.0576 227.942C98.0576 227.546 98.1351 227.197 98.29 226.896C98.445 226.591 98.6683 226.338 98.96 226.138C99.2516 225.933 99.6025 225.778 100.013 225.673C100.423 225.568 100.881 225.516 101.387 225.516H102.856ZM109.316 226.021V225.953C109.316 224.96 109.428 224.062 109.651 223.26C109.875 222.453 110.16 221.747 110.506 221.141C110.852 220.535 111.217 220.033 111.6 219.637C111.982 219.236 112.336 218.946 112.659 218.769L112.926 219.603C112.657 219.808 112.383 220.09 112.105 220.45C111.832 220.81 111.579 221.252 111.347 221.776C111.119 222.3 110.934 222.909 110.793 223.602C110.652 224.294 110.581 225.074 110.581 225.939V226.035C110.581 226.901 110.652 227.683 110.793 228.38C110.934 229.073 111.119 229.683 111.347 230.212C111.579 230.741 111.832 231.189 112.105 231.559C112.383 231.932 112.657 232.229 112.926 232.447L112.659 233.213C112.336 233.035 111.982 232.746 111.6 232.345C111.217 231.948 110.852 231.447 110.506 230.841C110.16 230.239 109.875 229.535 109.651 228.729C109.428 227.922 109.316 227.02 109.316 226.021ZM115.421 224.073V230H114.149V222.604H115.353L115.421 224.073ZM115.161 226.021L114.573 226.001C114.578 225.495 114.644 225.028 114.771 224.6C114.899 224.167 115.088 223.791 115.339 223.472C115.59 223.153 115.902 222.907 116.275 222.733C116.649 222.556 117.082 222.467 117.574 222.467C117.921 222.467 118.24 222.517 118.531 222.617C118.823 222.713 119.076 222.866 119.29 223.075C119.504 223.285 119.671 223.554 119.789 223.882C119.908 224.21 119.967 224.606 119.967 225.071V230H118.702V225.133C118.702 224.745 118.636 224.436 118.504 224.203C118.376 223.971 118.194 223.802 117.957 223.697C117.72 223.588 117.442 223.533 117.123 223.533C116.749 223.533 116.437 223.599 116.187 223.731C115.936 223.864 115.735 224.046 115.585 224.278C115.435 224.511 115.325 224.777 115.257 225.078C115.193 225.374 115.161 225.689 115.161 226.021ZM119.953 225.324L119.105 225.584C119.11 225.178 119.176 224.789 119.304 224.415C119.436 224.041 119.625 223.709 119.871 223.417C120.122 223.125 120.429 222.895 120.794 222.727C121.159 222.553 121.576 222.467 122.045 222.467C122.441 222.467 122.792 222.519 123.098 222.624C123.408 222.729 123.667 222.891 123.877 223.109C124.091 223.324 124.253 223.599 124.362 223.937C124.472 224.274 124.526 224.675 124.526 225.14V230H123.255V225.126C123.255 224.711 123.189 224.39 123.057 224.162C122.929 223.93 122.747 223.768 122.51 223.677C122.277 223.581 121.999 223.533 121.676 223.533C121.398 223.533 121.152 223.581 120.938 223.677C120.723 223.772 120.543 223.905 120.397 224.073C120.252 224.237 120.14 224.426 120.062 224.641C119.99 224.855 119.953 225.083 119.953 225.324ZM129.353 225.953V226.021C129.353 227.02 129.241 227.922 129.018 228.729C128.794 229.535 128.509 230.239 128.163 230.841C127.817 231.447 127.452 231.948 127.069 232.345C126.687 232.746 126.333 233.035 126.01 233.213L125.743 232.447C126.012 232.242 126.283 231.955 126.557 231.586C126.83 231.221 127.083 230.77 127.315 230.232C127.548 229.699 127.735 229.084 127.876 228.387C128.017 227.685 128.088 226.901 128.088 226.035V225.939C128.088 225.074 128.013 224.292 127.862 223.595C127.712 222.893 127.516 222.275 127.274 221.742C127.037 221.209 126.782 220.76 126.509 220.396C126.24 220.026 125.985 219.742 125.743 219.541L126.01 218.769C126.333 218.946 126.687 219.236 127.069 219.637C127.452 220.033 127.817 220.535 128.163 221.141C128.509 221.747 128.794 222.453 129.018 223.26C129.241 224.062 129.353 224.96 129.353 225.953Z" fill="#00453A"/>
<rect x="68" y="242" width="300" height="52" rx="4" fill="#DCE2E9"/>
<path d="M89.6953 261.562V273H88.25V263.367L85.3359 264.43V263.125L89.4688 261.562H89.6953ZM99.4922 261.609H99.6172V262.836H99.4922C98.7266 262.836 98.0859 262.961 97.5703 263.211C97.0547 263.456 96.6458 263.786 96.3438 264.203C96.0417 264.615 95.8229 265.078 95.6875 265.594C95.5573 266.109 95.4922 266.633 95.4922 267.164V268.836C95.4922 269.341 95.5521 269.789 95.6719 270.18C95.7917 270.565 95.9557 270.891 96.1641 271.156C96.3724 271.422 96.6068 271.622 96.8672 271.758C97.1328 271.893 97.4089 271.961 97.6953 271.961C98.0286 271.961 98.3255 271.898 98.5859 271.773C98.8464 271.643 99.0651 271.464 99.2422 271.234C99.4245 271 99.5625 270.724 99.6562 270.406C99.75 270.089 99.7969 269.74 99.7969 269.359C99.7969 269.021 99.7552 268.695 99.6719 268.383C99.5885 268.065 99.4609 267.784 99.2891 267.539C99.1172 267.289 98.901 267.094 98.6406 266.953C98.3854 266.807 98.0807 266.734 97.7266 266.734C97.3255 266.734 96.9505 266.833 96.6016 267.031C96.2578 267.224 95.974 267.479 95.75 267.797C95.5312 268.109 95.4062 268.451 95.375 268.82L94.6094 268.812C94.6823 268.229 94.8177 267.732 95.0156 267.32C95.2188 266.904 95.4688 266.565 95.7656 266.305C96.0677 266.039 96.4036 265.846 96.7734 265.727C97.1484 265.602 97.5443 265.539 97.9609 265.539C98.5286 265.539 99.0182 265.646 99.4297 265.859C99.8411 266.073 100.18 266.359 100.445 266.719C100.711 267.073 100.906 267.474 101.031 267.922C101.161 268.365 101.227 268.82 101.227 269.289C101.227 269.826 101.151 270.328 101 270.797C100.849 271.266 100.622 271.677 100.32 272.031C100.023 272.385 99.6562 272.661 99.2188 272.859C98.7812 273.057 98.2734 273.156 97.6953 273.156C97.0807 273.156 96.5443 273.031 96.0859 272.781C95.6276 272.526 95.2474 272.188 94.9453 271.766C94.6432 271.344 94.4167 270.875 94.2656 270.359C94.1146 269.844 94.0391 269.32 94.0391 268.789V268.109C94.0391 267.307 94.1198 266.521 94.2812 265.75C94.4427 264.979 94.7214 264.281 95.1172 263.656C95.5182 263.031 96.0729 262.534 96.7812 262.164C97.4896 261.794 98.3932 261.609 99.4922 261.609ZM104.773 267.586L103.617 267.289L104.188 261.625H110.023V262.961H105.414L105.07 266.055C105.279 265.935 105.542 265.823 105.859 265.719C106.182 265.615 106.552 265.562 106.969 265.562C107.495 265.562 107.966 265.654 108.383 265.836C108.799 266.013 109.154 266.268 109.445 266.602C109.742 266.935 109.969 267.336 110.125 267.805C110.281 268.273 110.359 268.797 110.359 269.375C110.359 269.922 110.284 270.424 110.133 270.883C109.987 271.341 109.766 271.742 109.469 272.086C109.172 272.424 108.797 272.688 108.344 272.875C107.896 273.062 107.367 273.156 106.758 273.156C106.299 273.156 105.865 273.094 105.453 272.969C105.047 272.839 104.682 272.643 104.359 272.383C104.042 272.117 103.781 271.789 103.578 271.398C103.38 271.003 103.255 270.539 103.203 270.008H104.578C104.641 270.435 104.766 270.794 104.953 271.086C105.141 271.378 105.385 271.599 105.688 271.75C105.995 271.896 106.352 271.969 106.758 271.969C107.102 271.969 107.406 271.909 107.672 271.789C107.938 271.669 108.161 271.497 108.344 271.273C108.526 271.049 108.664 270.779 108.758 270.461C108.857 270.143 108.906 269.786 108.906 269.391C108.906 269.031 108.857 268.698 108.758 268.391C108.659 268.083 108.51 267.815 108.312 267.586C108.12 267.357 107.883 267.18 107.602 267.055C107.32 266.924 106.997 266.859 106.633 266.859C106.148 266.859 105.781 266.924 105.531 267.055C105.286 267.185 105.034 267.362 104.773 267.586Z" fill="#495057" fill-opacity="0.5"/>
<rect x="68.5" y="242.5" width="299" height="51" rx="3.5" stroke="#495057" stroke-opacity="0.3"/>
<rect x="68" y="326" width="300" height="52" rx="4" fill="#02799D"/>
<path d="M167.414 353.227H169.75C169.703 353.992 169.492 354.672 169.117 355.266C168.747 355.859 168.229 356.323 167.562 356.656C166.901 356.99 166.104 357.156 165.172 357.156C164.443 357.156 163.789 357.031 163.211 356.781C162.633 356.526 162.138 356.161 161.727 355.688C161.32 355.214 161.01 354.641 160.797 353.969C160.583 353.297 160.477 352.544 160.477 351.711V350.922C160.477 350.089 160.586 349.336 160.805 348.664C161.029 347.987 161.346 347.411 161.758 346.938C162.174 346.464 162.672 346.099 163.25 345.844C163.828 345.589 164.474 345.461 165.188 345.461C166.135 345.461 166.935 345.633 167.586 345.977C168.242 346.32 168.75 346.794 169.109 347.398C169.474 348.003 169.693 348.69 169.766 349.461H167.422C167.396 349.003 167.305 348.615 167.148 348.297C166.992 347.974 166.755 347.732 166.438 347.57C166.125 347.404 165.708 347.32 165.188 347.32C164.797 347.32 164.456 347.393 164.164 347.539C163.872 347.685 163.628 347.906 163.43 348.203C163.232 348.5 163.083 348.875 162.984 349.328C162.891 349.776 162.844 350.302 162.844 350.906V351.711C162.844 352.299 162.888 352.818 162.977 353.266C163.065 353.708 163.201 354.083 163.383 354.391C163.57 354.693 163.81 354.922 164.102 355.078C164.398 355.229 164.755 355.305 165.172 355.305C165.661 355.305 166.065 355.227 166.383 355.07C166.701 354.914 166.943 354.682 167.109 354.375C167.281 354.068 167.383 353.685 167.414 353.227ZM175.711 355.094V351.328C175.711 351.057 175.667 350.826 175.578 350.633C175.49 350.435 175.352 350.281 175.164 350.172C174.982 350.062 174.745 350.008 174.453 350.008C174.203 350.008 173.987 350.052 173.805 350.141C173.622 350.224 173.482 350.346 173.383 350.508C173.284 350.664 173.234 350.849 173.234 351.062H170.984C170.984 350.703 171.068 350.362 171.234 350.039C171.401 349.716 171.643 349.432 171.961 349.188C172.279 348.938 172.656 348.742 173.094 348.602C173.536 348.461 174.031 348.391 174.578 348.391C175.234 348.391 175.818 348.5 176.328 348.719C176.839 348.938 177.24 349.266 177.531 349.703C177.828 350.141 177.977 350.688 177.977 351.344V354.961C177.977 355.424 178.005 355.805 178.062 356.102C178.12 356.393 178.203 356.648 178.312 356.867V357H176.039C175.93 356.771 175.846 356.484 175.789 356.141C175.737 355.792 175.711 355.443 175.711 355.094ZM176.008 351.852L176.023 353.125H174.766C174.469 353.125 174.211 353.159 173.992 353.227C173.773 353.294 173.594 353.391 173.453 353.516C173.312 353.635 173.208 353.776 173.141 353.938C173.078 354.099 173.047 354.276 173.047 354.469C173.047 354.661 173.091 354.836 173.18 354.992C173.268 355.143 173.396 355.263 173.562 355.352C173.729 355.435 173.924 355.477 174.148 355.477C174.487 355.477 174.781 355.409 175.031 355.273C175.281 355.138 175.474 354.971 175.609 354.773C175.75 354.576 175.823 354.388 175.828 354.211L176.422 355.164C176.339 355.378 176.224 355.599 176.078 355.828C175.938 356.057 175.758 356.273 175.539 356.477C175.32 356.674 175.057 356.839 174.75 356.969C174.443 357.094 174.078 357.156 173.656 357.156C173.12 357.156 172.633 357.049 172.195 356.836C171.763 356.617 171.419 356.318 171.164 355.938C170.914 355.552 170.789 355.115 170.789 354.625C170.789 354.182 170.872 353.789 171.039 353.445C171.206 353.102 171.451 352.812 171.773 352.578C172.102 352.339 172.51 352.159 173 352.039C173.49 351.914 174.057 351.852 174.703 351.852H176.008ZM182.086 345V357H179.828V345H182.086ZM187.438 355.398C187.714 355.398 187.958 355.346 188.172 355.242C188.385 355.133 188.552 354.982 188.672 354.789C188.797 354.591 188.862 354.359 188.867 354.094H190.984C190.979 354.688 190.82 355.216 190.508 355.68C190.195 356.138 189.776 356.5 189.25 356.766C188.724 357.026 188.135 357.156 187.484 357.156C186.828 357.156 186.255 357.047 185.766 356.828C185.281 356.609 184.878 356.307 184.555 355.922C184.232 355.531 183.99 355.078 183.828 354.562C183.667 354.042 183.586 353.484 183.586 352.891V352.664C183.586 352.065 183.667 351.508 183.828 350.992C183.99 350.471 184.232 350.018 184.555 349.633C184.878 349.242 185.281 348.938 185.766 348.719C186.25 348.5 186.818 348.391 187.469 348.391C188.161 348.391 188.768 348.523 189.289 348.789C189.815 349.055 190.227 349.435 190.523 349.93C190.826 350.419 190.979 351 190.984 351.672H188.867C188.862 351.391 188.802 351.135 188.688 350.906C188.578 350.677 188.417 350.495 188.203 350.359C187.995 350.219 187.737 350.148 187.43 350.148C187.102 350.148 186.833 350.219 186.625 350.359C186.417 350.495 186.255 350.682 186.141 350.922C186.026 351.156 185.945 351.424 185.898 351.727C185.857 352.023 185.836 352.336 185.836 352.664V352.891C185.836 353.219 185.857 353.534 185.898 353.836C185.94 354.138 186.018 354.406 186.133 354.641C186.253 354.875 186.417 355.06 186.625 355.195C186.833 355.331 187.104 355.398 187.438 355.398ZM197.289 354.977V348.547H199.539V357H197.422L197.289 354.977ZM197.539 353.242L198.203 353.227C198.203 353.789 198.138 354.312 198.008 354.797C197.878 355.276 197.682 355.693 197.422 356.047C197.161 356.396 196.833 356.669 196.438 356.867C196.042 357.06 195.576 357.156 195.039 357.156C194.628 357.156 194.247 357.099 193.898 356.984C193.555 356.865 193.258 356.68 193.008 356.43C192.763 356.174 192.57 355.849 192.43 355.453C192.294 355.052 192.227 354.57 192.227 354.008V348.547H194.477V354.023C194.477 354.273 194.505 354.484 194.562 354.656C194.625 354.828 194.711 354.969 194.82 355.078C194.93 355.188 195.057 355.266 195.203 355.312C195.354 355.359 195.521 355.383 195.703 355.383C196.167 355.383 196.531 355.289 196.797 355.102C197.068 354.914 197.258 354.659 197.367 354.336C197.482 354.008 197.539 353.643 197.539 353.242ZM203.633 345V357H201.375V345H203.633ZM210.055 355.094V351.328C210.055 351.057 210.01 350.826 209.922 350.633C209.833 350.435 209.695 350.281 209.508 350.172C209.326 350.062 209.089 350.008 208.797 350.008C208.547 350.008 208.331 350.052 208.148 350.141C207.966 350.224 207.826 350.346 207.727 350.508C207.628 350.664 207.578 350.849 207.578 351.062H205.328C205.328 350.703 205.411 350.362 205.578 350.039C205.745 349.716 205.987 349.432 206.305 349.188C206.622 348.938 207 348.742 207.438 348.602C207.88 348.461 208.375 348.391 208.922 348.391C209.578 348.391 210.161 348.5 210.672 348.719C211.182 348.938 211.583 349.266 211.875 349.703C212.172 350.141 212.32 350.688 212.32 351.344V354.961C212.32 355.424 212.349 355.805 212.406 356.102C212.464 356.393 212.547 356.648 212.656 356.867V357H210.383C210.273 356.771 210.19 356.484 210.133 356.141C210.081 355.792 210.055 355.443 210.055 355.094ZM210.352 351.852L210.367 353.125H209.109C208.812 353.125 208.555 353.159 208.336 353.227C208.117 353.294 207.938 353.391 207.797 353.516C207.656 353.635 207.552 353.776 207.484 353.938C207.422 354.099 207.391 354.276 207.391 354.469C207.391 354.661 207.435 354.836 207.523 354.992C207.612 355.143 207.74 355.263 207.906 355.352C208.073 355.435 208.268 355.477 208.492 355.477C208.831 355.477 209.125 355.409 209.375 355.273C209.625 355.138 209.818 354.971 209.953 354.773C210.094 354.576 210.167 354.388 210.172 354.211L210.766 355.164C210.682 355.378 210.568 355.599 210.422 355.828C210.281 356.057 210.102 356.273 209.883 356.477C209.664 356.674 209.401 356.839 209.094 356.969C208.786 357.094 208.422 357.156 208 357.156C207.464 357.156 206.977 357.049 206.539 356.836C206.107 356.617 205.763 356.318 205.508 355.938C205.258 355.552 205.133 355.115 205.133 354.625C205.133 354.182 205.216 353.789 205.383 353.445C205.549 353.102 205.794 352.812 206.117 352.578C206.445 352.339 206.854 352.159 207.344 352.039C207.833 351.914 208.401 351.852 209.047 351.852H210.352ZM216.305 350.391V357H214.055V348.547H216.172L216.305 350.391ZM218.852 348.492L218.812 350.578C218.703 350.562 218.57 350.549 218.414 350.539C218.263 350.523 218.125 350.516 218 350.516C217.682 350.516 217.406 350.557 217.172 350.641C216.943 350.719 216.75 350.836 216.594 350.992C216.443 351.148 216.328 351.339 216.25 351.562C216.177 351.786 216.135 352.042 216.125 352.328L215.672 352.188C215.672 351.641 215.727 351.138 215.836 350.68C215.945 350.216 216.104 349.812 216.312 349.469C216.526 349.125 216.786 348.859 217.094 348.672C217.401 348.484 217.753 348.391 218.148 348.391C218.273 348.391 218.401 348.401 218.531 348.422C218.661 348.438 218.768 348.461 218.852 348.492ZM226.531 345.625V357H224.195V345.625H226.531ZM229.797 345.625H231.781L234.703 353.977L237.625 345.625H239.609L235.5 357H233.906L229.797 345.625ZM228.727 345.625H230.703L231.062 353.766V357H228.727V345.625ZM238.703 345.625H240.688V357H238.344V353.766L238.703 345.625ZM249.336 353.227H251.672C251.625 353.992 251.414 354.672 251.039 355.266C250.669 355.859 250.151 356.323 249.484 356.656C248.823 356.99 248.026 357.156 247.094 357.156C246.365 357.156 245.711 357.031 245.133 356.781C244.555 356.526 244.06 356.161 243.648 355.688C243.242 355.214 242.932 354.641 242.719 353.969C242.505 353.297 242.398 352.544 242.398 351.711V350.922C242.398 350.089 242.508 349.336 242.727 348.664C242.951 347.987 243.268 347.411 243.68 346.938C244.096 346.464 244.594 346.099 245.172 345.844C245.75 345.589 246.396 345.461 247.109 345.461C248.057 345.461 248.857 345.633 249.508 345.977C250.164 346.32 250.672 346.794 251.031 347.398C251.396 348.003 251.615 348.69 251.688 349.461H249.344C249.318 349.003 249.227 348.615 249.07 348.297C248.914 347.974 248.677 347.732 248.359 347.57C248.047 347.404 247.63 347.32 247.109 347.32C246.719 347.32 246.378 347.393 246.086 347.539C245.794 347.685 245.549 347.906 245.352 348.203C245.154 348.5 245.005 348.875 244.906 349.328C244.812 349.776 244.766 350.302 244.766 350.906V351.711C244.766 352.299 244.81 352.818 244.898 353.266C244.987 353.708 245.122 354.083 245.305 354.391C245.492 354.693 245.732 354.922 246.023 355.078C246.32 355.229 246.677 355.305 247.094 355.305C247.583 355.305 247.987 355.227 248.305 355.07C248.622 354.914 248.865 354.682 249.031 354.375C249.203 354.068 249.305 353.685 249.336 353.227Z" fill="white"/>
<path d="M263.168 352.262L274.359 352.262M274.359 352.262L269.645 347.548M274.359 352.262L269.645 356.976" stroke="white" stroke-width="1.20972" stroke-linecap="round" stroke-linejoin="round"/>
</g>
<defs>
<filter id="filter0_d_109_78" x="0" y="0" width="436" height="448" filterUnits="userSpaceOnUse" color-interpolation-filters="sRGB">
<feFlood flood-opacity="0" result="BackgroundImageFix"/>
<feColorMatrix in="SourceAlpha" type="matrix" values="0 0 0 0 0 0 0 0 0 0 0 0 0 0 0 0 0 0 127 0" result="hardAlpha"/>
<feOffset dy="2"/>
<feGaussianBlur stdDeviation="2"/>
<feComposite in2="hardAlpha" operator="out"/>
<feColorMatrix type="matrix" values="0 0 0 0 0 0 0 0 0 0 0 0 0 0 0 0 0 0 0.1 0"/>
<feBlend mode="normal" in2="BackgroundImageFix" result="effect1_dropShadow_109_78"/>
<feBlend mode="normal" in="SourceGraphic" in2="effect1_dropShadow_109_78" result="shape"/>
</filter>
</defs>
</svg>
